# xmcd
#
# Track frame offsets: 
#        150
#        20250
#        38566
#        61768
#        78177
#        96016
#        115481
#        133913
#        150673
#        176916
#        198756
#        214587
#        232721
#        256864
#        282900
#        304055
#        317089
#        335588
#
# Disc length: 4650 seconds
#
# Revision: 3
# Processed by: cddbd v1.5.2PL0 Copyright (c) Steve Scherf et al.
# Submitted via: ExactAudioCopy v0.99pb4
#
DISCID=ea122812
DTITLE=Zucchero Sugar Fornaciari - All The Best [CD1]
DYEAR=2007
DGENRE=Rock
TTITLE0=Nel Così Blu
TTITLE1=Tutti I Colori Della Mia Vita
TTITLE2=Wonderful Life
TTITLE3=Occhi
TTITLE4=Indaco Dagli Occhi Del Cielo
TTITLE5=Il Volo
TTITLE6=Baila (Sexy Thing)
TTITLE7=Bacco Perbacco
TTITLE8=Diamante
TTITLE9=Così Celeste
TTITLE10=Un Kilo
TTITLE11=Amen
TTITLE12=Menta E Rosmarino
TTITLE13=Blu
TTITLE14=Con Le Mani
TTITLE15=Solo Una Sana E Consapevole Libidine Salva Il Giovane Dallo S
TTITLE15=tress E Dall'Azione Cattolica
TTITLE16=Diavolo In Me
TTITLE17=You Are So Beautiful
EXTD=YEAR: 2007
EXTT0=
EXTT1=
EXTT2=
EXTT3=
EXTT4=
EXTT5=
EXTT6=
EXTT7=
EXTT8=
EXTT9=
EXTT10=
EXTT11=
EXTT12=
EXTT13=
EXTT14=
EXTT15=
EXTT16=
EXTT17=
PLAYORDER=
